<svg xmlns="http://www.w3.org/2000/svg" fill="none" viewBox="0 0 48 48" id="Magnifier--Streamline-Nova.svg" height="48" width="48"><desc>Magnifier Streamline Icon: https://streamlinehq.com</desc><path fill="#000000" fill-rule="evenodd" d="M8 21C8 13.8203 13.8203 8 21 8c7.1798 0 13 5.8203 13 13 0 7.1798 -5.8202 13 -13 13C13.8203 34 8 28.1798 8 21ZM21 2C10.50658 2 2 10.50658 2 21c0 10.4934 8.50658 19 19 19 4.164 0 8.0152 -1.3396 11.1462 -3.6112L41.7574 46 46 41.7574l-9.6112 -9.6112C38.6604 29.0152 40 25.164 40 21 40 10.50658 31.4934 2 21 2Z" clip-rule="evenodd" stroke-width="1"></path></svg>