<svg xmlns="http://www.w3.org/2000/svg" fill="none" viewBox="-0.5 -0.5 36 36" height="36" width="36" id="Person-Add--Streamline-Outlined----Material-Symbols.svg">
  <path fill="#000" d="M26.614583333333332 20.4168125V15.677229166666665H21.875V13.489729166666665H26.614583333333332V8.750145833333333H28.802083333333332V13.489729166666665H33.541666666666664V15.677229166666665H28.802083333333332V20.4168125H26.614583333333332ZM13.125 17.4636875C11.520833333333334 17.4636875 10.208333333333332 16.95327083333333 9.1875 15.9324375C8.166666666666666 14.911604166666665 7.65625 13.599104166666667 7.65625 11.994937499999999C7.65625 10.390770833333333 8.166666666666666 9.078270833333333 9.1875 8.057437499999999C10.208333333333332 7.036604166666666 11.520833333333334 6.5261875 13.125 6.5261875C14.729166666666666 6.5261875 16.041666666666664 7.036604166666666 17.062499999999996 8.057437499999999C18.083333333333332 9.078270833333333 18.59375 10.390770833333333 18.59375 11.994937499999999C18.59375 13.599104166666667 18.083333333333332 14.911604166666665 17.062499999999996 15.9324375C16.041666666666664 16.95327083333333 14.729166666666666 17.4636875 13.125 17.4636875ZM1.4583333333333333 29.1668125V25.739729166666663C1.4583333333333333 24.889010416666665 1.671009375 24.117333333333335 2.0963541666666665 23.424625C2.5216989583333334 22.731916666666667 3.1354166666666665 22.215447916666665 3.9375 21.87514583333333C5.760416666666667 21.0730625 7.380843749999999 20.50795833333333 8.798854166666667 20.17983333333333C10.216864583333333 19.851708333333335 11.65696875 19.68764583333333 13.119166666666667 19.68764583333333C14.581364583333333 19.68764583333333 16.017385416666666 19.851708333333335 17.427083333333332 20.17983333333333C18.83678125 20.50795833333333 20.453125 21.0730625 22.276041666666664 21.87514583333333C23.078124999999996 22.239729166666667 23.697916666666664 22.762322916666665 24.135416666666668 23.442854166666663C24.572916666666668 24.123385416666665 24.791666666666664 24.889010416666665 24.791666666666664 25.739729166666663V29.1668125H1.4583333333333333ZM3.645833333333333 26.9793125H22.604166666666664V25.739729166666663C22.604166666666664 25.350864583333333 22.494791666666668 24.980156249999997 22.276041666666664 24.62775C22.057291666666664 24.275343749999998 21.765625 24.014010416666668 21.401041666666668 23.843895833333335C19.675322916666666 23.0418125 18.216989583333334 22.513166666666667 17.026041666666668 22.257958333333335C15.835093749999999 22.00275 14.534697916666666 21.87514583333333 13.125 21.87514583333333C11.715302083333333 21.87514583333333 10.408854166666666 22.00275 9.205729166666666 22.257958333333335C8.002604166666666 22.513166666666667 6.538196875 23.0418125 4.812499999999999 23.843895833333335C4.447916666666666 24.014010416666668 4.162323958333333 24.275343749999998 3.9557291666666665 24.62775C3.749134375 24.980156249999997 3.645833333333333 25.350864583333333 3.645833333333333 25.739729166666663V26.9793125ZM13.125 15.276187499999999C14.072916666666666 15.276187499999999 14.856770833333332 14.966291666666667 15.4765625 14.346499999999999C16.096354166666664 13.726708333333331 16.40625 12.942854166666665 16.40625 11.994937499999999C16.40625 11.047020833333333 16.096354166666664 10.263166666666667 15.4765625 9.643374999999999C14.856770833333332 9.023583333333333 14.072916666666666 8.7136875 13.125 8.7136875C12.177083333333332 8.7136875 11.393229166666666 9.023583333333333 10.7734375 9.643374999999999C10.153645833333334 10.263166666666667 9.84375 11.047020833333333 9.84375 11.994937499999999C9.84375 12.942854166666665 10.153645833333334 13.726708333333331 10.7734375 14.346499999999999C11.393229166666666 14.966291666666667 12.177083333333332 15.276187499999999 13.125 15.276187499999999Z" stroke-width="1"></path>
</svg>