<svg xmlns="http://www.w3.org/2000/svg" fill="none" viewBox="-0.5 -0.5 36 36" height="36" width="36" id="Account-Circle--Streamline-Outlined----Material-Symbols.svg">
  <path fill="#000" d="M8.09375 25.703125C9.624999999999998 24.633656249999998 11.144072916666666 23.813343749999998 12.651041666666668 23.2421875C14.158010416666665 22.67103125 15.774281249999998 22.385416666666664 17.5 22.385416666666664C19.22571875 22.385416666666664 20.84811458333333 22.67103125 22.3671875 23.2421875C23.886260416666666 23.813343749999998 25.411458333333332 24.633656249999998 26.942708333333336 25.703125C28.01217708333333 24.390625 28.771677083333334 23.065947916666666 29.221354166666668 21.729166666666668C29.671031249999995 20.392385416666666 29.895833333333332 18.982614583333334 29.895833333333332 17.5C29.895833333333332 13.975718749999999 28.7109375 11.028645833333332 26.341145833333332 8.658854166666666C23.971354166666664 6.2890625 21.02428125 5.104166666666666 17.5 5.104166666666666C13.975718749999999 5.104166666666666 11.028645833333332 6.2890625 8.658854166666666 8.658854166666666C6.2890625 11.028645833333332 5.104166666666666 13.975718749999999 5.104166666666666 17.5C5.104166666666666 18.982614583333334 5.335071875 20.392385416666666 5.796875 21.729166666666668C6.258678124999999 23.065947916666666 7.024303125 24.390625 8.09375 25.703125ZM17.493072916666666 18.59375C16.08796875 18.59375 14.90540625 18.111406249999998 13.9453125 17.146718749999998C12.98521875 16.182249999999996 12.505208333333332 14.997354166666664 12.505208333333332 13.592031249999998C12.505208333333332 12.186927083333332 12.987552083333332 11.004364583333333 13.952239583333332 10.044270833333334C14.916708333333332 9.084177083333332 16.101604166666664 8.604166666666666 17.50692708333333 8.604166666666666C18.91203125 8.604166666666666 20.094593749999998 9.086510416666666 21.0546875 10.051197916666666C22.01478125 11.015666666666666 22.494791666666668 12.200562499999998 22.494791666666668 13.605885416666666C22.494791666666668 15.010989583333334 22.012447916666666 16.193552083333334 21.047760416666666 17.153645833333332C20.083291666666664 18.11373958333333 18.898395833333332 18.59375 17.493072916666666 18.59375ZM17.517135416666665 32.08333333333333C15.51265625 32.08333333333333 13.623239583333332 31.700520833333332 11.848958333333332 30.93489583333333C10.074677083333334 30.169270833333332 8.525197916666666 29.124156249999995 7.200520833333333 27.799479166666664C5.875865624999999 26.474802083333334 4.830729166666666 24.928166666666662 4.065104166666667 23.159427083333334C3.299479166666667 21.390979166666668 2.9166666666666665 19.501197916666666 2.9166666666666665 17.49015625C2.9166666666666665 15.479333333333333 3.299479166666667 13.592906249999999 4.065104166666667 11.830729166666668C4.830729166666666 10.068552083333332 5.875865624999999 8.525197916666666 7.200520833333333 7.200520833333333C8.525197916666666 5.875865624999999 10.071833333333332 4.830729166666666 11.840572916666664 4.065104166666667C13.609020833333332 3.299479166666667 15.498802083333334 2.9166666666666665 17.509843749999998 2.9166666666666665C19.520666666666667 2.9166666666666665 21.407093749999998 3.299479166666667 23.169270833333332 4.065104166666667C24.931447916666663 4.830729166666666 26.474802083333334 5.875865624999999 27.799479166666664 7.200520833333333C29.124156249999995 8.525197916666666 30.169270833333332 10.068916666666667 30.93489583333333 11.831822916666667C31.700520833333332 13.594729166666667 32.08333333333333 15.478385416666665 32.08333333333333 17.482864583333335C32.08333333333333 19.48734375 31.700520833333332 21.376760416666666 30.93489583333333 23.151041666666664C30.169270833333332 24.925322916666666 29.124156249999995 26.474802083333334 27.799479166666664 27.799479166666664C26.474802083333334 29.124156249999995 24.931083333333333 30.169270833333332 23.16817708333333 30.93489583333333C21.405270833333333 31.700520833333332 19.52161458333333 32.08333333333333 17.517135416666665 32.08333333333333ZM17.5 29.895833333333332C18.83678125 29.895833333333332 20.143229166666664 29.70136458333333 21.419270833333332 29.3125C22.6953125 28.923635416666663 23.953125 28.243031249999998 25.19270833333333 27.270833333333332C23.953125 26.395833333333336 22.689260416666666 25.727406249999998 21.401041666666668 25.265624999999996C20.112822916666666 24.80384375 18.8125 24.572916666666668 17.5 24.572916666666668C16.1875 24.572916666666668 14.88717708333333 24.80384375 13.598958333333332 25.265624999999996C12.310739583333332 25.727406249999998 11.046875 26.395833333333336 9.807291666666666 27.270833333333332C11.046875 28.243031249999998 12.3046875 28.923635416666663 13.580729166666666 29.3125C14.856770833333332 29.70136458333333 16.16321875 29.895833333333332 17.5 29.895833333333332ZM17.5 16.40625C18.32636458333333 16.40625 19.000843749999998 16.144989583333334 19.523437499999996 15.622395833333334C20.04603125 15.099802083333334 20.307291666666668 14.425322916666666 20.307291666666668 13.598958333333332C20.307291666666668 12.772593749999999 20.04603125 12.098114583333333 19.523437499999996 11.575520833333332C19.000843749999998 11.052927083333334 18.32636458333333 10.791666666666666 17.5 10.791666666666666C16.673635416666666 10.791666666666666 15.99915625 11.052927083333334 15.4765625 11.575520833333332C14.953968749999998 12.098114583333333 14.692708333333332 12.772593749999999 14.692708333333332 13.598958333333332C14.692708333333332 14.425322916666666 14.953968749999998 15.099802083333334 15.4765625 15.622395833333334C15.99915625 16.144989583333334 16.673635416666666 16.40625 17.5 16.40625Z" stroke-width="1"></path>
</svg>