<svg width="400" height="400" viewBox="0 0 400 400" fill="none" xmlns="http://www.w3.org/2000/svg">
<path d="M200 283.333C191.159 283.333 182.681 279.821 176.43 273.57C170.179 267.319 166.667 258.841 166.667 250C166.667 231.5 181.5 216.667 200 216.667C208.841 216.667 217.319 220.179 223.57 226.43C229.821 232.681 233.333 241.159 233.333 250C233.333 258.841 229.821 267.319 223.57 273.57C217.319 279.821 208.841 283.333 200 283.333ZM300 333.333V166.667H100V333.333H300ZM300 133.333C308.841 133.333 317.319 136.845 323.57 143.096C329.821 149.348 333.333 157.826 333.333 166.667V333.333C333.333 342.174 329.821 350.652 323.57 356.903C317.319 363.155 308.841 366.667 300 366.667H100C91.1594 366.667 82.681 363.155 76.4298 356.903C70.1786 350.652 66.6667 342.174 66.6667 333.333V166.667C66.6667 148.167 81.5 133.333 100 133.333H116.667V100C116.667 77.8986 125.446 56.7024 141.074 41.0744C156.702 25.4464 177.899 16.6666 200 16.6666C210.943 16.6666 221.78 18.8221 231.89 23.01C242.001 27.1979 251.187 33.3362 258.926 41.0744C266.664 48.8126 272.802 57.9992 276.99 68.1097C281.178 78.2201 283.333 89.0565 283.333 100V133.333H300ZM200 50C186.739 50 174.021 55.2678 164.645 64.6446C155.268 74.0214 150 86.7391 150 100V133.333H250V100C250 86.7391 244.732 74.0214 235.355 64.6446C225.979 55.2678 213.261 50 200 50Z" fill="black"/>
</svg>
