<svg id="Port-Input--Streamline-Carbon.svg" xmlns="http://www.w3.org/2000/svg" viewBox="0 0 36 36" height="36" width="36"><desc>Port Input Streamline Icon: https://streamlinehq.com</desc><defs></defs><path d="M20.25 31.5c-4.0419 0 -7.837425 -1.7890875 -10.413675000000001 -4.9086l1.73475 -1.4329125c2.1472875 2.6002125 5.3107875 4.0914 8.678925 4.0914 6.2031374999999995 0 11.25 -5.046749999999999 11.25 -11.25s-5.0468625000000005 -11.25 -11.25 -11.25c-3.3681375 0 -6.5316375 1.4912999999999998 -8.678925 4.0914L9.836324999999999 9.408375c2.57625 -3.1194 6.371775 -4.9086 10.413675000000001 -4.9086 7.4440125 0 13.5 6.056100000000001 13.5 13.5s-6.0559875 13.5 -13.5 13.5Z" stroke-width="1"></path><path d="m25.875 18 -7.875 -7.875 -1.5908624999999998 1.5908624999999998L21.5683875 16.875 2.25 16.875l0 2.25 19.3183875 0 -5.15925 5.1591375L18 25.875l7.875 -7.875z" stroke-width="1"></path><path id="_Transparent_Rectangle_" d="M0 0h36v36H0Z" fill="none" stroke-width="1"></path></svg>