<svg id="Port-Output--Streamline-Carbon.svg" xmlns="http://www.w3.org/2000/svg" viewBox="0 0 36 36" height="36" width="36"><desc>Port Output Streamline Icon: https://streamlinehq.com</desc><defs></defs><path d="m33.75 18 -7.875 -7.875 -1.5908624999999998 1.5908624999999998L29.4433875 16.875 10.125 16.875l0 2.25 19.3183875 0 -5.15925 5.1591375L25.875 25.875l7.875 -7.875z" stroke-width="1"></path><path d="M15.75 31.5C8.3062125 31.5 2.25 25.443900000000003 2.25 18S8.3062125 4.5 15.75 4.5c2.626875 0 5.173425 0.755325 7.3643625 2.184075l-1.2288375 1.8847125C20.060662500000003 7.3789875 17.93925 6.75 15.7498875 6.75c-6.2031374999999995 0 -11.25 5.046749999999999 -11.25 11.25s5.0468625000000005 11.25 11.25 11.25c2.18925 0 4.310775 -0.6289875 6.1356375 -1.8187875l1.2288375 1.8847125C20.923425 30.744675 18.3767625 31.5 15.75 31.5Z" stroke-width="1"></path><path id="_Transparent_Rectangle_" d="M0 0h36v36H0Z" fill="none" stroke-width="1"></path></svg>