<svg width="400" height="400" viewBox="0 0 400 400" fill="none" xmlns="http://www.w3.org/2000/svg">
<g clip-path="url(#clip0_9_9)">
<path d="M53.3333 333.333V346.667H80V333.333H53.3333ZM186.667 333.333V346.667H213.333V333.333H186.667ZM80 333.333V320H53.3333V333.333H80ZM186.667 320V333.333H213.333V320H186.667ZM133.333 266.667C147.478 266.667 161.044 272.286 171.046 282.288C181.048 292.29 186.667 305.855 186.667 320H213.333C213.333 298.783 204.905 278.434 189.902 263.431C174.899 248.429 154.551 240 133.333 240V266.667ZM80 320C80 305.855 85.619 292.29 95.621 282.288C105.623 272.286 119.188 266.667 133.333 266.667V240C112.116 240 91.7677 248.429 76.7648 263.431C61.7619 278.434 53.3333 298.783 53.3333 320H80ZM133.333 106.667C119.188 106.667 105.623 112.286 95.621 122.288C85.619 132.29 80 145.855 80 160H106.667C106.667 152.928 109.476 146.145 114.477 141.144C119.478 136.143 126.261 133.333 133.333 133.333V106.667ZM186.667 160C186.667 145.855 181.048 132.29 171.046 122.288C161.044 112.286 147.478 106.667 133.333 106.667V133.333C140.406 133.333 147.189 136.143 152.19 141.144C157.19 146.145 160 152.928 160 160H186.667ZM133.333 213.333C147.478 213.333 161.044 207.714 171.046 197.712C181.048 187.71 186.667 174.145 186.667 160H160C160 167.072 157.19 173.855 152.19 178.856C147.189 183.857 140.406 186.667 133.333 186.667V213.333ZM133.333 186.667C126.261 186.667 119.478 183.857 114.477 178.856C109.476 173.855 106.667 167.072 106.667 160H80C80 174.145 85.619 187.71 95.621 197.712C105.623 207.714 119.188 213.333 133.333 213.333V186.667ZM40 80H360V53.3334H40V80ZM373.333 93.3334V306.667H400V93.3334H373.333ZM360 320H40V346.667H360V320ZM26.6667 306.667V93.3334H0V306.667H26.6667ZM40 320C36.4638 320 33.0724 318.595 30.5719 316.095C28.0714 313.594 26.6667 310.203 26.6667 306.667H0C0 317.275 4.21427 327.45 11.7157 334.951C19.2172 342.452 29.3913 346.667 40 346.667V320ZM373.333 306.667C373.333 310.203 371.929 313.594 369.428 316.095C366.928 318.595 363.536 320 360 320V346.667C370.609 346.667 380.783 342.452 388.284 334.951C395.786 327.45 400 317.275 400 306.667H373.333ZM360 80C363.536 80 366.928 81.4048 369.428 83.9053C371.929 86.4058 373.333 89.7972 373.333 93.3334H400C400 82.7247 395.786 72.5506 388.284 65.0491C380.783 57.5476 370.609 53.3334 360 53.3334V80ZM40 53.3334C29.3913 53.3334 19.2172 57.5476 11.7157 65.0491C4.21427 72.5506 0 82.7247 0 93.3334H26.6667C26.6667 89.7972 28.0714 86.4058 30.5719 83.9053C33.0724 81.4048 36.4638 80 40 80V53.3334ZM240 160H320V133.333H240V160ZM240 240H320V213.333H240V240Z" fill="black"/>
</g>
<defs>
<clipPath id="clip0_9_9">
<rect width="400" height="400" fill="white"/>
</clipPath>
</defs>
</svg>
